<svg width="50" height="50" viewBox="0 0 50 50" fill="none" xmlns="http://www.w3.org/2000/svg">
<circle cx="25" cy="25" r="25" fill="#B41A8A"/>
<path d="M29.8878 24.1027L22.8648 17.0797C22.7338 16.9487 22.5783 16.8449 22.4072 16.774C22.2361 16.7031 22.0527 16.6666 21.8675 16.6666C21.4935 16.6666 21.1347 16.8152 20.8702 17.0797C20.7393 17.2107 20.6354 17.3661 20.5645 17.5373C20.4936 17.7084 20.4572 17.8918 20.4572 18.077C20.4572 18.451 20.6058 18.8097 20.8702 19.0742L26.91 25.1L20.8702 31.1257C20.7386 31.2563 20.6341 31.4116 20.5628 31.5828C20.4915 31.754 20.4548 31.9375 20.4548 32.123C20.4548 32.3084 20.4915 32.492 20.5628 32.6631C20.6341 32.8343 20.7386 32.9897 20.8702 33.1202C21.0008 33.2519 21.1562 33.3564 21.3273 33.4277C21.4985 33.499 21.6821 33.5357 21.8675 33.5357C22.0529 33.5357 22.2365 33.499 22.4077 33.4277C22.5788 33.3564 22.7342 33.2519 22.8648 33.1202L29.8878 26.0972C30.0194 25.9667 30.1239 25.8113 30.1952 25.6401C30.2665 25.469 30.3032 25.2854 30.3032 25.1C30.3032 24.9145 30.2665 24.731 30.1952 24.5598C30.1239 24.3886 30.0194 24.2333 29.8878 24.1027Z" fill="white"/>
</svg>
