<svg width="402" height="831" viewBox="0 0 402 831" fill="none" xmlns="http://www.w3.org/2000/svg">
<path d="M410.783 630.164C417.794 630.164 423.478 622.123 423.478 612.204C423.478 602.284 417.794 594.243 410.783 594.243C403.772 594.243 398.088 602.284 398.088 612.204C398.088 622.123 403.772 630.164 410.783 630.164Z" fill="#00B89C" stroke="#00B89C" stroke-width="33.28" stroke-miterlimit="10"/>
<path d="M423.385 581.74C428.82 581.74 433.225 575.507 433.225 567.819C433.225 560.13 428.82 553.898 423.385 553.898C417.951 553.898 413.546 560.13 413.546 567.819C413.546 575.507 417.951 581.74 423.385 581.74Z" fill="#00B89C" stroke="#00B89C" stroke-width="25.79" stroke-miterlimit="10"/>
<path d="M-117.283 585.214C-112.22 578.109 -102.92 565.385 -85.716 557.164C-80.0659 554.465 -67.5156 550.012 -52.2549 549.95C-24.8887 549.835 -0.183807 568.799 11.5886 593.053C23.361 617.308 23.7868 645.849 18.6171 672.556C10.9608 646.521 30.1384 617.111 56.1917 607.87C82.245 598.629 111.934 606.7 133.56 623.162C146.888 633.306 158.429 648.324 157.088 665.091C166.257 641.369 192.419 628.819 216.917 621.382C238.109 614.945 260.996 610.566 282.013 616.814C299.613 622.046 314.262 634.368 325.355 648.791C336.448 663.214 344.364 679.765 352.2 696.185C362.294 685.843 373.867 676.923 386.45 669.783C392.198 666.524 398.484 663.554 405.049 663.809C419.182 664.354 430.971 679.379 433.829 691.072C440.014 716.373 408.63 745.729 391.33 757.869C333.347 798.574 286.386 749.231 151.179 751.366C84.0792 752.428 35.925 765.523 -65.8997 756.352C-95.9245 753.649 -120.659 749.907 -136.663 730.954C-170.683 690.662 -137.844 614.068 -117.286 585.218L-117.283 585.214Z" fill="#00B89C"/>
<path d="M-106.927 599.865C-104.179 596.011 -101.337 592.312 -98.2774 588.952L-101.242 592.192C-96.0228 586.516 -90.3072 581.878 -84.2531 578.233C-85.4186 578.928 -86.5868 579.627 -87.7523 580.322C-80.0251 575.742 -71.902 573.023 -63.6125 571.421C-64.909 571.668 -66.2082 571.915 -67.5048 572.162C-58.6884 570.509 -49.7411 570.085 -40.9083 571.71L-44.8006 570.969C-37.289 572.413 -29.9493 575.228 -22.9563 579.372L-26.4555 577.283C-20.1913 581.048 -14.26 585.84 -8.86375 591.721L-11.828 588.481C-7.58907 593.15 -3.72133 598.452 -0.432266 604.464L-2.72234 600.271C0.228271 605.735 2.65755 611.716 4.54912 618.049L3.07243 613.099C5.02676 619.791 6.33693 626.776 7.04662 633.944L6.52255 628.437C7.37143 637.465 7.26224 646.579 6.427 655.599L6.95108 650.093C6.39699 655.819 5.56175 661.469 4.49179 667.045H32.7368C32.019 664.558 31.5168 661.99 31.2411 659.33L31.7651 664.836C31.4977 661.955 31.5086 659.075 31.7733 656.198C31.5986 658.032 31.424 659.87 31.2493 661.704C31.5795 658.468 32.221 655.344 33.1135 652.329L31.6369 657.279C32.7914 653.491 34.3063 649.973 36.0723 646.695C35.3081 648.092 34.5465 649.49 33.7823 650.888C36.2716 646.351 39.1922 642.358 42.3884 638.821L39.4242 642.061C43.7095 637.384 48.4207 633.588 53.3938 630.58C52.2283 631.275 51.0601 631.974 49.8946 632.669C56.3253 628.846 63.0973 626.498 70.0003 625.174L66.108 625.915C75.4511 624.185 84.9143 624.382 94.2493 626.128L90.357 625.386C100.817 627.402 111.074 631.329 120.802 637.133L117.303 635.044C124.061 639.122 130.601 644.042 136.45 650.375C135.462 649.293 134.474 648.216 133.486 647.135C136.579 650.533 139.453 654.31 141.863 658.696C141.099 657.298 140.337 655.901 139.573 654.503C140.949 657.071 142.133 659.797 143.037 662.755L141.56 657.804C142.199 659.994 142.657 662.237 142.908 664.581L142.384 659.075C142.57 661.083 142.592 663.075 142.444 665.087L142.969 670.594C143.422 673.289 144.295 675.641 145.589 677.641C147.459 681.066 150.131 684.078 153.196 685.067C159.444 687.079 166.502 683.797 169.737 675.544C170.559 673.444 171.495 671.455 172.529 669.555C171.765 670.953 171.003 672.351 170.239 673.749C172.45 669.771 175.049 666.311 177.876 663.222C176.888 664.303 175.9 665.381 174.912 666.462C180.104 660.866 185.917 656.58 191.909 652.981C190.743 653.676 189.575 654.375 188.41 655.07C196.44 650.297 204.806 646.741 213.256 643.81C222.703 640.531 232.287 637.882 241.924 636.021L238.032 636.763C250.315 634.438 262.789 633.577 275.11 635.859C273.813 635.612 272.514 635.365 271.218 635.117C279.111 636.639 286.801 639.531 294.159 643.864C292.994 643.169 291.826 642.47 290.66 641.775C298.177 646.262 305.225 652.135 311.686 659.179C310.697 658.098 309.709 657.02 308.721 655.939C316.604 664.608 323.401 674.965 329.498 686.117C328.734 684.719 327.973 683.322 327.208 681.924C331.556 689.925 335.563 698.277 339.557 706.638C341.607 710.936 344.59 714.963 348.31 716.16C352.031 717.358 356.447 717.284 359.597 714.071C369.355 704.108 379.959 695.93 391.033 689.307C389.867 690.002 388.699 690.701 387.533 691.396C392.834 688.253 398.233 685.31 403.957 684.175C402.66 684.422 401.361 684.669 400.065 684.916C402.726 684.441 405.382 684.395 408.046 684.858C406.749 684.611 405.45 684.364 404.154 684.117C407.052 684.677 409.853 685.789 412.55 687.384L409.05 685.295C411.851 687.006 414.468 689.187 416.895 691.802C415.907 690.72 414.919 689.643 413.931 688.562C416.218 691.079 418.292 693.933 420.075 697.165C419.31 695.767 418.549 694.37 417.785 692.972C418.975 695.18 420.012 697.528 420.793 700.077C420.301 698.428 419.807 696.775 419.316 695.126C419.837 696.907 420.2 698.729 420.386 700.637L419.862 695.13C420.02 697.007 420.007 698.872 419.84 700.749L420.364 695.242C420.118 697.721 419.619 700.104 418.948 702.417C419.439 700.768 419.933 699.115 420.424 697.467C419.289 701.243 417.736 704.703 415.978 707.958C416.742 706.561 417.504 705.163 418.268 703.765C414.392 710.835 409.64 716.856 404.661 722.327C405.649 721.246 406.637 720.169 407.625 719.088C398.391 729.166 388.169 737.789 377.418 744.207C378.583 743.512 379.752 742.813 380.917 742.118C372.297 747.235 363.254 750.71 353.99 752.482L357.883 751.741C343.979 754.367 329.891 753.278 315.993 751.146C311.563 750.467 307.141 749.675 302.727 748.837C304.024 749.084 305.323 749.331 306.62 749.579C283.986 745.265 261.441 740.145 238.731 736.654C209.301 732.128 179.711 730.136 150.112 730.661C127.76 731.058 105.449 732.954 83.1374 734.831C59.0876 736.851 35.0296 738.558 10.9307 738.828C-3.90695 738.994 -18.7446 738.677 -33.5714 737.924C-50.1068 737.083 -66.6777 735.967 -83.1558 733.785C-86.7397 733.31 -90.3181 732.758 -93.8856 732.086L-89.9933 732.827C-99.8468 730.946 -109.728 728.193 -118.929 722.71L-115.43 724.799C-119.871 722.111 -124.09 718.779 -127.92 714.6C-126.932 715.682 -125.944 716.759 -124.956 717.84C-127.868 714.612 -130.508 710.955 -132.778 706.815C-132.014 708.213 -131.253 709.611 -130.488 711.009C-132.511 707.256 -134.187 703.193 -135.492 698.849L-134.015 703.8C-135.423 699 -136.346 693.976 -136.843 688.828L-136.319 694.335C-136.927 687.662 -136.821 680.931 -136.209 674.27L-136.734 679.777C-135.705 668.984 -133.409 658.523 -130.428 648.506L-131.905 653.456C-127.385 638.404 -121.347 624.263 -114.297 611.319L-116.587 615.512C-113.59 610.037 -110.399 604.758 -106.927 599.873C-104.269 596.131 -102.636 590.52 -102.636 585.222C-102.636 579.924 -104.233 574.07 -106.927 570.571C-109.72 566.945 -113.383 564.254 -117.283 564.501C-121.173 564.748 -124.827 566.609 -127.639 570.571C-133.046 578.182 -137.806 586.743 -142.266 595.475C-146.705 604.159 -150.681 613.338 -154.063 622.93C-158.081 634.318 -161.597 646.343 -163.668 658.758C-164.798 665.543 -165.525 672.532 -165.879 679.479C-166.234 686.446 -165.759 693.169 -165.066 700.073C-162.416 726.401 -148.817 748.517 -132.036 759.445C-123.091 765.272 -113.841 769.11 -104.146 771.431C-92.9603 774.107 -81.6491 775.571 -70.338 776.664C-48.7775 778.741 -27.1679 779.992 -5.55557 780.263C11.9898 780.483 29.5379 780.004 47.0696 778.969C62.3276 778.065 77.5719 776.741 92.8163 775.463C107.689 774.219 122.568 773.065 137.463 772.474C157.397 771.686 177.352 771.926 197.27 773.377C215.129 774.679 232.942 776.977 250.686 780.066C254.464 780.722 258.239 781.413 262.011 782.132L258.119 781.39C277.542 785.086 296.892 789.697 316.38 792.658C323.993 793.817 331.644 794.651 339.303 794.736C347.603 794.829 355.814 793.798 364.016 791.994C380.808 788.306 396.814 778.567 411.171 765.894C416.944 760.796 422.447 755.108 427.709 749.007C432.972 742.906 437.243 736.38 441.27 728.881C444.673 722.544 447.547 714.905 448.53 707.02C449.382 700.201 449.447 694.987 448.456 688.149C448.126 685.866 447.463 683.789 446.824 681.646C446.103 679.232 445.397 676.908 444.395 674.703C440.161 665.396 434.249 657.515 427.444 652.051C419.886 645.98 410.781 642.296 402.044 643.196C397.117 643.702 392.231 644.965 387.547 647.185C382.863 649.405 378.401 652.17 373.93 654.943C367.018 659.225 360.301 664.145 353.873 669.74C350.778 672.432 347.759 675.289 344.811 678.298L364.848 685.731C355.41 665.952 345.641 645.849 332.659 630.333C319.768 614.929 304.75 603.151 288.25 597.579C269.514 591.25 250.476 592.648 231.596 596.579C216.401 599.742 201.072 604.375 186.614 611.801C170.389 620.135 153.161 632.391 144.445 654.638L171.738 665.095C172.529 654.12 169.483 642.288 164.865 633.592C162.253 628.672 159.561 624.143 156.239 620.169C152.8 616.053 149.151 612.187 145.316 608.832C138.67 603.016 131.406 598.521 124.105 594.648C117.606 591.204 110.888 588.574 104.067 586.774C87.7531 582.476 71.2504 582.009 54.977 587.006C40.7234 591.381 26.5818 601.344 16.3543 616.246C10.6851 624.506 6.11586 634.446 3.79849 645.548C1.65309 655.835 1.60942 668.049 4.49725 678.066L5.97391 683.017C6.89375 685.43 8.15207 687.369 9.74611 688.828C12.2163 691.527 15.4126 693.481 18.6198 693.277C25.0642 692.867 31.0009 687.141 32.7423 678.066C35.0023 666.284 36.3808 653.889 36.419 641.667C36.4572 629.445 35.2289 617.065 32.3138 605.692C29.0602 592.988 24.4801 581.828 18.2295 571.614C13.42 563.755 7.52428 557.094 1.41287 551.383C-12.4804 538.396 -28.8902 531.449 -45.3984 529.604C-54.4031 528.596 -63.3695 529.847 -72.2814 531.639C-77.9233 532.774 -83.568 534.404 -88.9943 536.898C-97.4148 540.767 -105.721 546.124 -113.011 553.287C-118.249 558.434 -123.116 564.219 -127.639 570.563C-130.3 574.294 -131.93 579.924 -131.93 585.214C-131.93 590.505 -130.333 596.367 -127.639 599.865C-124.847 603.491 -121.183 606.183 -117.283 605.936C-113.388 605.688 -109.747 603.819 -106.927 599.865Z" fill="#00B89C"/>
<path d="M424.993 657.914C420.462 650.557 412.118 637.374 395.539 628.253C390.094 625.256 377.885 620.143 362.64 619.255C335.304 617.664 309.204 635.231 295.639 658.771C282.07 682.311 279.518 710.736 282.698 737.636C292.287 712.099 275.312 681.751 249.968 671.132C224.622 660.516 194.354 666.957 171.519 682.199C157.446 691.59 144.797 705.94 144.887 722.719C137.49 698.58 112.286 684.659 88.359 675.92C67.6637 668.363 45.1179 662.76 23.653 667.853C5.67911 672.116 -9.87643 683.608 -22.0364 697.387C-34.1937 711.165 -43.3349 727.233 -52.3887 743.177C-61.7045 732.326 -72.6035 722.807 -84.6489 715.015C-90.1489 711.454 -96.2111 708.157 -102.789 708.056C-116.953 707.836 -129.852 722.174 -133.578 733.678C-141.641 758.562 -112.465 789.516 -96.0856 802.553C-41.1758 846.254 9.4213 799.606 144.366 809.033C211.335 813.709 258.476 829.364 360.907 825.718C391.112 824.645 416.103 822.247 433.507 804.221C470.5 765.895 443.39 687.779 424.993 657.914Z" fill="#FDDA00"/>
<path d="M429.349 647.263C421.169 633.99 411.141 623.004 399.693 615.961C393.541 612.176 387.402 609.11 380.851 607.044C372.188 604.31 363.194 602.611 354.312 602.445C337.14 602.121 319.966 608.361 304.788 619.61C290.684 630.063 278.15 646.039 270.51 665.957C268.013 672.467 265.944 679.43 264.385 686.5C262.827 693.571 262.035 700.834 261.396 708.187C260.261 721.235 261.066 734.218 262.573 747.142C263.064 748.791 263.558 750.444 264.049 752.093C264.814 753.491 265.575 754.889 266.339 756.287C268.63 759.526 271.577 761.384 274.749 761.986C277.43 762.496 279.845 762.06 282.34 760.573C285.143 758.901 287.892 756.02 289.344 752.097C292.688 743.049 294.735 732.565 293.869 722.293C293.433 717.103 292.936 712.203 291.563 707.353C290.19 702.503 288.711 697.691 286.579 693.331C281.887 683.743 276.305 676.232 269.569 669.548C263.504 663.528 256.532 659.106 249.509 655.882C241.845 652.36 233.724 650.622 225.713 649.684C218.496 648.838 211.222 649.078 204.03 650.217C195.858 651.51 187.757 653.433 179.841 656.615C172.103 659.724 164.537 663.918 157.298 668.872C141.327 679.8 124.295 699.344 124.238 726.726L151.53 716.269C149.92 711.102 147.526 706.731 145.037 702.34C143.17 699.046 141.011 696.1 138.699 693.436C132.593 686.404 126.11 680.627 118.943 676.024C104.086 666.482 88.3857 660.052 72.4344 655.36C63.1213 652.623 53.6444 650.58 44.1511 649.641C34.4422 648.684 24.8862 649.483 15.2701 651.537C7.64381 653.167 0.200424 656.179 -6.92363 660.346C-14.8037 664.956 -22.3372 670.239 -29.363 677.113C-37.3469 684.921 -44.7575 693.887 -51.453 703.823C-57.5917 712.929 -63.1763 722.729 -68.7418 732.534H-48.0302C-55.7984 723.517 -64.0088 715.373 -72.8224 708.534C-76.9167 705.356 -81.112 702.406 -85.3973 699.78C-90.5943 696.598 -95.7586 693.551 -101.4 692.428C-104.84 691.744 -108.175 691.076 -111.642 691.493C-114.797 691.872 -118.012 692.459 -121.086 693.605C-124.105 694.733 -126.962 696.517 -129.82 698.278C-131.663 699.413 -133.442 700.753 -135.143 702.275C-139.057 705.777 -142.916 709.975 -146.017 714.887C-149.694 720.706 -152.221 726.394 -154.132 733.666C-155.44 738.643 -155.893 744.451 -155.456 749.734C-155.161 753.305 -154.894 756.908 -154.116 760.349C-153.319 763.871 -152.257 767.311 -151.097 770.621C-149.219 775.973 -146.58 780.692 -143.962 785.345C-141.83 789.133 -139.461 792.651 -136.974 795.976C-131.16 803.742 -124.708 810.677 -118.067 816.956C-113.618 821.161 -109.005 825.038 -104.201 828.378C-95.3819 834.511 -86.0906 839.384 -76.45 842.145C-66.8093 844.906 -56.7401 846.219 -46.8183 846.285C-37.0275 846.35 -27.2476 845.369 -17.5005 844.122C-6.10751 842.666 5.26094 840.844 16.643 839.206C30.2251 837.256 43.8263 835.549 57.4576 834.379C73.8374 832.974 90.25 832.329 106.66 832.487C123.015 832.646 139.362 833.607 155.677 835.229C168.189 836.476 180.676 838.098 193.158 839.816C205.739 841.546 218.316 843.346 230.908 844.921C244.809 846.659 258.727 848.107 272.661 849.123C289.09 850.32 305.538 850.919 321.989 850.984C340.719 851.058 359.558 850.949 378.247 848.999C395.528 847.196 413.092 843.57 428.541 831.784C442.863 820.86 453.986 802.309 458.293 779.985C462.152 759.982 460.752 738.326 456.732 718.613C454.679 708.542 451.843 698.753 448.682 689.284C446.177 681.781 443.316 674.51 440.12 667.551C436.869 660.473 433.266 653.642 429.352 647.27C426.994 643.428 422.484 641.2 418.996 641.2C415.508 641.2 411.113 643.459 408.64 647.27C406.077 651.221 404.175 656.403 404.349 661.921C404.53 667.632 405.982 672.243 408.64 676.572C409.759 678.395 410.835 680.264 411.88 682.171C411.116 680.773 410.354 679.376 409.59 677.978C416.111 689.964 421.453 703.29 425.607 717.219C425.116 715.57 424.622 713.917 424.13 712.268C427.477 723.571 430.026 735.388 431.192 747.552L430.667 742.045C431.383 749.753 431.525 757.557 430.823 765.28L431.347 759.774C430.785 765.69 429.726 771.474 428.088 776.981L429.565 772.03C428.156 776.664 426.358 781.012 424.193 785.017C424.957 783.619 425.719 782.221 426.483 780.823C424.119 785.129 421.373 788.944 418.344 792.304C419.332 791.222 420.32 790.145 421.308 789.064C417.383 793.35 413.07 796.798 408.515 799.552L412.014 797.463C403.902 802.29 395.246 804.892 386.553 806.553L390.445 805.811C381.359 807.51 372.193 808.213 363.038 808.665C352.707 809.171 342.365 809.426 332.028 809.515C313.907 809.673 295.786 809.213 277.683 808.024C262.592 807.036 247.522 805.53 232.472 803.668C218.977 802 205.498 800.062 192.015 798.212C178.667 796.381 165.312 794.675 151.932 793.42C133.89 791.732 115.806 790.886 97.7234 791.029C80.8632 791.161 64.0084 792.157 47.1918 793.902C33.2986 795.343 19.4408 797.316 5.58575 799.378C-5.91917 801.089 -17.4296 802.88 -28.9754 803.962C-38.8317 804.885 -48.7481 805.279 -58.6044 804.163C-60.848 803.908 -63.089 803.572 -65.319 803.151L-61.4267 803.892C-70.4423 802.166 -79.2668 798.899 -87.6574 793.902L-84.1581 795.991C-93.7251 790.253 -102.642 782.422 -110.866 773.475C-109.878 774.556 -108.89 775.633 -107.902 776.714C-113.675 770.397 -119.178 763.423 -123.682 755.267C-122.917 756.665 -122.156 758.063 -121.392 759.461C-123.439 755.704 -125.256 751.707 -126.578 747.336L-125.101 752.286C-125.843 749.753 -126.397 747.139 -126.676 744.42L-126.152 749.927C-126.34 747.857 -126.356 745.795 -126.174 743.721L-126.698 749.228C-126.512 747.397 -126.174 745.64 -125.685 743.926L-127.162 748.876C-126.441 746.478 -125.458 744.289 -124.342 742.227L-126.632 746.42C-124.814 743.146 -122.685 740.28 -120.36 737.732L-123.324 740.972C-120.586 738.033 -117.622 735.596 -114.459 733.704C-115.624 734.399 -116.792 735.098 -117.958 735.793C-115.163 734.175 -112.267 733.021 -109.275 732.422C-110.572 732.669 -111.871 732.916 -113.167 733.163C-110.544 732.692 -107.927 732.681 -105.301 733.125L-109.193 732.383C-105.003 733.187 -101.01 735.063 -97.1233 737.38C-98.2888 736.685 -99.4571 735.986 -100.623 735.291C-89.4015 742.088 -78.71 750.896 -69.0284 761.411L-71.9927 758.171C-70.8981 759.368 -69.8172 760.585 -68.7473 761.828C-65.7966 765.253 -62.4093 768.153 -58.3915 767.898C-54.7585 767.667 -50.4185 766.026 -48.0357 761.828C-38.3158 744.71 -28.3968 727.723 -16.0511 714.222C-17.0392 715.304 -18.0273 716.381 -19.0154 717.462C-11.9514 709.801 -4.25961 703.379 3.93713 698.459L0.437881 700.549C8.17061 695.965 16.2582 692.802 24.5668 691.184L20.6745 691.926C31.8738 689.833 43.204 690.454 54.3759 692.574L50.4836 691.833C60.359 693.748 70.1116 696.784 79.7468 700.371C88.1592 703.503 96.487 707.187 104.517 711.944L101.018 709.855C107.623 713.802 114.06 718.482 119.775 724.656C118.787 723.575 117.799 722.498 116.811 721.417C119.753 724.637 122.461 728.244 124.751 732.403C123.987 731.005 123.225 729.607 122.461 728.209C123.962 730.993 125.242 733.971 126.241 737.18C127.006 738.577 127.767 739.975 128.531 741.373C129.858 743.393 131.43 744.822 133.245 745.656C136.155 747.393 139.69 748.116 142.782 746.698C148.951 743.876 153.515 736.129 153.534 726.719C153.534 725.568 153.588 724.436 153.692 723.297L153.168 728.804C153.408 726.518 153.853 724.328 154.476 722.189C153.984 723.838 153.49 725.491 152.999 727.139C153.878 724.263 155.038 721.617 156.386 719.131C155.622 720.528 154.86 721.926 154.096 723.324C156.288 719.389 158.878 715.979 161.665 712.902C160.677 713.983 159.689 715.06 158.701 716.142C164.359 709.994 170.7 705.271 177.253 701.348C176.088 702.043 174.92 702.742 173.754 703.437C183.799 697.49 194.381 693.478 205.168 691.389C203.872 691.636 202.572 691.883 201.276 692.13C211.039 690.292 220.945 690.053 230.719 691.879L226.827 691.138C233.703 692.47 240.496 694.772 246.911 698.556C245.745 697.861 244.577 697.162 243.412 696.467C248.125 699.301 252.591 702.877 256.669 707.272C255.681 706.19 254.693 705.113 253.705 704.032C256.917 707.542 259.849 711.523 262.349 716.053C261.585 714.655 260.823 713.257 260.059 711.859C261.907 715.269 263.484 718.93 264.674 722.884C264.183 721.235 263.689 719.582 263.198 717.933C264.085 720.965 264.726 724.104 265.062 727.356L264.538 721.849C264.811 724.738 264.833 727.63 264.584 730.522C264.759 728.688 264.934 726.85 265.108 725.016C264.838 727.827 264.317 730.545 263.564 733.171C264.055 731.522 264.549 729.87 265.04 728.221C264.74 729.225 264.412 730.206 264.055 731.171C272.978 732.82 281.9 734.473 290.823 736.121C290.659 734.716 290.509 733.306 290.373 731.893C290.548 733.727 290.722 735.565 290.897 737.4C289.974 727.499 289.843 717.486 290.75 707.573L290.226 713.079C291.009 704.908 292.496 696.934 294.759 689.331C294.268 690.98 293.774 692.632 293.283 694.281C295.332 687.523 297.956 681.194 301.103 675.344C300.338 676.742 299.577 678.14 298.813 679.538C302.26 673.228 306.289 667.675 310.741 662.79C309.752 663.871 308.764 664.949 307.776 666.03C313.421 659.909 319.625 654.924 326.168 650.993C325.002 651.688 323.834 652.387 322.669 653.082C329.937 648.773 337.561 645.811 345.365 644.27L341.472 645.011C350.005 643.389 358.575 643.683 367.1 645.266C365.803 645.019 364.504 644.772 363.207 644.525C371.658 646.143 380.087 648.873 387.964 653.561C386.799 652.866 385.63 652.167 384.465 651.472C390.148 654.912 395.525 659.234 400.433 664.563C399.445 663.481 398.456 662.404 397.468 661.323C401.584 665.841 405.226 671.019 408.643 676.564C411.009 680.403 415.502 682.635 418.999 682.635C422.495 682.635 426.882 680.376 429.355 676.564C431.918 672.614 433.82 667.432 433.645 661.914C433.471 656.395 432.019 651.58 429.355 647.263H429.349Z" fill="#FDDA00"/>
<path d="M3.68896 612.578C5.47531 612.578 6.92343 610.529 6.92343 608.002C6.92343 605.475 5.47531 603.426 3.68896 603.426C1.9026 603.426 0.454468 605.475 0.454468 608.002C0.454468 610.529 1.9026 612.578 3.68896 612.578Z" fill="#00B89C" stroke="#00B89C" stroke-width="8.48" stroke-miterlimit="10"/>
<path d="M378.72 580.944C380.387 580.944 383 579.032 383 576.673C383 574.314 380.387 572.402 378.72 572.402C377.052 572.402 375 574.314 375 576.673C375 579.032 377.052 580.944 378.72 580.944Z" fill="#00B89C" stroke="#00B89C" stroke-width="7.91" stroke-miterlimit="10"/>
<path d="M209.5 659C219.165 659 227 649.822 227 638.5C227 627.178 219.165 618 209.5 618C199.835 618 192 627.178 192 638.5C192 649.822 199.835 659 209.5 659Z" fill="#FDDA00" stroke="#FDDA00" stroke-width="33.28" stroke-miterlimit="10"/>
<path d="M281.5 662C296.688 662 309 651.479 309 638.5C309 625.521 296.688 615 281.5 615C266.312 615 254 625.521 254 638.5C254 651.479 266.312 662 281.5 662Z" fill="#FDDA00" stroke="#FDDA00" stroke-width="33.28" stroke-miterlimit="10"/>
<path d="M-93.357 215.997C-81.2687 231.736 -49.6126 228.191 -32.6516 223.042C-7.34617 215.36 7.54798 197.514 13.7282 188.978C22.2756 193.611 37.6611 200.259 57.1802 199.609C103.016 198.086 129.324 157.74 132.065 153.383C140.369 153.233 168.444 151.723 184.625 131.375C206.04 104.446 192.783 61.9233 179.168 42.7128C147.239 -2.3432 52.8679 -4.5156 -55.5288 39.1476C-69.5337 74.7628 -83.5345 110.378 -97.5394 145.993C-98.989 149.68 -103.825 158.492 -104.333 170.738C-104.674 178.953 -103.078 185.848 -101.458 192.641C-98.5099 205.013 -97.0318 211.21 -93.357 215.997Z" fill="#FDDA00"/>
<path d="M-98.7494 221.39C-93.2879 228.349 -84.4156 232.199 -75.9006 233.754C-66.8983 235.399 -57.7864 235.305 -48.7395 234.115C-39.6966 232.926 -30.8811 230.952 -22.4392 227.432C-12.698 223.367 -3.87436 217.816 4.0884 210.877C10.2158 205.537 15.5433 199.398 20.3144 192.828L9.87877 195.564C31.8545 207.421 58.0614 210.885 81.9456 202.837C100.267 196.661 116.395 184.82 128.914 170.194C132.418 166.101 135.777 161.801 138.655 157.237L132.069 161.013C147.04 160.725 162.584 157.428 175.424 149.469C184.312 143.959 191.902 136.158 196.608 126.774C201.314 117.391 203.454 107.02 203.531 96.5598C203.665 78.0437 198.017 58.7276 188.414 42.9239C180.853 30.4823 169.638 20.7654 156.684 14.232C141.506 6.57779 124.874 2.83395 108.055 1.07979C88.1258 -0.999217 68.0016 0.117438 48.1861 2.78117C24.5415 5.95653 1.27849 11.5154 -21.4444 18.7595C-27.5718 20.7126 -33.6586 22.7876 -39.7088 24.9762C-42.807 26.0969 -45.8931 27.2461 -48.9669 28.4236C-50.5871 29.0449 -52.1991 29.6702 -53.8111 30.3077C-55.8942 31.1279 -58.3833 31.802 -60.1456 33.1623C-62.2652 34.7987 -62.9718 37.3568 -63.9138 39.7566C-64.5554 41.3849 -65.197 43.0173 -65.8385 44.6456C-67.0729 47.7803 -68.3033 50.9151 -69.5377 54.0498C-72.0025 60.3193 -74.4672 66.5888 -76.932 72.8624C-81.8615 85.4014 -86.7951 97.9445 -91.7246 110.484C-94.2381 116.879 -96.7557 123.274 -99.2691 129.67C-100.504 132.804 -101.734 135.939 -102.968 139.074C-103.561 140.58 -104.166 142.079 -104.743 143.589C-105.319 145.1 -104.357 142.749 -104.483 143.013C-104.641 143.346 -104.779 143.695 -104.93 144.032C-109.343 154.061 -112.433 164.258 -111.95 175.367C-111.67 181.787 -110.371 188.105 -108.889 194.338C-107.691 199.385 -106.582 204.49 -104.958 209.419C-103.756 213.07 -102.27 216.757 -99.9391 219.847C-97.6084 222.937 -93.2473 224.995 -89.5035 222.583C-86.3647 220.557 -84.2004 215.555 -86.7667 212.148C-87.7778 210.808 -88.6305 209.374 -89.3411 207.852C-89.4263 207.665 -89.5035 207.474 -89.5969 207.291C-89.9501 206.573 -89.2233 208.217 -89.2396 208.14C-89.337 207.661 -89.6253 207.149 -89.7918 206.69C-90.1451 205.704 -90.4658 204.705 -90.7704 203.702C-92.3865 198.313 -93.629 192.791 -94.8756 187.309C-95.2045 185.86 -95.5172 184.406 -95.7974 182.944C-95.9273 182.258 -96.0491 181.572 -96.1628 180.886C-96.2359 180.443 -96.4714 178.36 -96.3415 179.753C-96.6501 176.496 -96.8531 173.264 -96.6704 169.991C-96.6298 169.26 -96.5729 168.533 -96.4998 167.806C-96.4552 167.335 -96.4024 166.864 -96.3415 166.393C-96.3577 166.519 -96.5526 167.575 -96.3658 166.71C-96.0654 165.321 -95.8583 163.916 -95.5212 162.532C-94.9365 160.128 -94.1853 157.765 -93.3123 155.45C-93.1377 154.987 -92.959 154.528 -92.7763 154.074C-92.6707 153.81 -92.5002 153.493 -92.423 153.213C-92.4027 153.132 -93.093 154.768 -92.7641 154.025C-92.4352 153.282 -92.0982 152.498 -91.7612 151.735C-90.677 149.27 -89.6943 146.769 -88.7076 144.263C-86.1454 137.742 -83.5791 131.221 -81.0169 124.7C-75.8884 111.657 -70.7599 98.6145 -65.6314 85.572C-59.8127 70.7753 -53.9939 55.9745 -48.1751 41.1778C-49.9496 42.9523 -51.7281 44.7308 -53.5025 46.5053C-30.0853 37.0929 -6.01427 29.2114 18.6009 23.5875C24.3222 22.28 30.0719 21.0984 35.8461 20.0548C38.5869 19.5594 41.3359 19.0924 44.089 18.662C45.3884 18.459 46.6918 18.26 47.9953 18.0732C48.6409 17.9799 49.2865 17.8905 49.9362 17.7971C50.0743 17.7768 51.1584 17.6306 50.2123 17.7565C49.2662 17.8824 50.6346 17.7037 50.8052 17.6794C61.0013 16.3556 71.2623 15.5151 81.5396 15.3039C90.8261 15.1131 100.133 15.4379 109.367 16.4693C110.41 16.5871 111.45 16.7251 112.489 16.847C113.37 16.9485 111.726 16.7536 111.75 16.7454C111.937 16.7008 112.323 16.8266 112.518 16.851C113.11 16.9363 113.703 17.0216 114.296 17.115C116.375 17.4317 118.45 17.7931 120.513 18.1951C124.468 18.9625 128.394 19.8924 132.268 21.009C136.142 22.1257 139.679 23.3276 143.276 24.7732C143.682 24.9356 144.088 25.1346 144.503 25.2767C143.557 24.9518 143.289 24.7569 144.296 25.1955C145.156 25.5731 146.013 25.9629 146.862 26.3649C148.466 27.1242 150.045 27.9242 151.6 28.7769C154.601 30.4173 157.505 32.2365 160.27 34.2465C160.595 34.482 160.911 34.7256 161.236 34.9611C162.296 35.7286 159.941 33.9176 160.956 34.7418C161.622 35.2819 162.292 35.8138 162.946 36.3661C164.188 37.4178 165.39 38.5141 166.552 39.6551C167.713 40.7961 168.805 41.9493 169.865 43.1594C170.368 43.736 170.864 44.3207 171.347 44.9176C171.546 45.1612 172.399 46.2698 171.583 45.1937C170.766 44.1177 171.712 45.3724 171.911 45.6404C174.043 48.5356 175.915 51.6175 177.604 54.7888C178.559 56.5836 179.452 58.4109 180.288 60.2584C180.495 60.7173 180.698 61.1842 180.906 61.6471C181.003 61.8664 181.149 62.1182 181.21 62.3496C181.21 62.3618 180.629 60.9081 180.938 61.7162C181.344 62.7719 181.783 63.8155 182.181 64.8793C183.772 69.1307 185.096 73.4877 186.123 77.9097C186.676 80.277 187.143 82.6687 187.512 85.0685C187.557 85.3486 187.593 85.6288 187.638 85.9049C187.78 86.782 187.557 85.304 187.561 85.2755C187.549 85.8197 187.703 86.4166 187.764 86.9607C187.898 88.1788 188.008 89.4011 188.093 90.6233C188.414 95.3336 188.267 100.019 187.756 104.709C187.658 105.595 187.829 104.096 187.841 104.072C187.735 104.255 187.748 104.693 187.711 104.904C187.622 105.457 187.528 106.013 187.423 106.561C187.199 107.755 186.94 108.941 186.643 110.118C186.071 112.38 185.36 114.609 184.503 116.781C184.471 116.863 184.15 117.504 184.187 117.561C184.162 117.525 184.783 116.245 184.398 117.029C184.15 117.537 183.931 118.056 183.683 118.56C183.147 119.664 182.566 120.749 181.949 121.808C181.373 122.799 180.759 123.77 180.114 124.716C179.789 125.195 179.448 125.662 179.107 126.133C179.013 126.263 178.404 127.038 178.997 126.291C179.59 125.544 178.782 126.543 178.664 126.681C177.109 128.565 175.408 130.332 173.584 131.96C173.158 132.342 172.728 132.715 172.289 133.081C172.07 133.263 171.842 133.434 171.631 133.621C170.961 134.205 172.066 133.304 172.066 133.3C171.696 134.063 169.824 134.928 169.114 135.399C167.226 136.65 165.26 137.783 163.238 138.802C162.292 139.281 161.33 139.715 160.367 140.158C159.048 140.767 161.614 139.675 160.27 140.203C159.709 140.422 159.153 140.645 158.593 140.857C154.821 142.274 150.931 143.362 146.988 144.17C145.242 144.531 143.483 144.816 141.721 145.088C140.377 145.295 143.5 144.876 142.18 145.027C141.802 145.071 141.425 145.12 141.047 145.161C140.276 145.25 139.504 145.327 138.729 145.396C135.971 145.64 132.715 145.287 130.047 146.022C127.006 146.858 125.637 149.392 124.021 151.755C122.974 153.286 121.845 154.744 120.756 156.242C121.004 155.901 122.031 154.614 121.272 155.572C121.094 155.799 120.915 156.027 120.736 156.25C120.326 156.766 119.912 157.277 119.49 157.785C118.604 158.857 117.703 159.909 116.785 160.948C112.246 166.073 107.263 170.75 101.915 175.018C100.835 175.879 103.109 174.125 101.997 174.957C101.623 175.237 101.25 175.522 100.872 175.798C100.044 176.407 99.2071 177.008 98.3584 177.592C96.6855 178.75 94.976 179.854 93.2299 180.902C91.4839 181.949 89.5917 183.009 87.7197 183.968C86.8021 184.439 85.8722 184.893 84.9382 185.332C84.4672 185.551 83.9921 185.77 83.517 185.982C83.2775 186.087 83.0379 186.193 82.7983 186.298C81.8888 186.704 82.7983 186.379 83.1638 186.148C81.3934 187.269 78.8515 187.821 76.8659 188.463C74.5838 189.198 72.2652 189.831 69.9264 190.359C68.8178 190.611 67.7052 190.834 66.5886 191.037C66.0242 191.138 65.4557 191.236 64.8872 191.325C64.603 191.37 64.3147 191.415 64.0304 191.455C62.7189 191.654 64.3268 191.415 64.3268 191.419C64.3431 191.597 57.432 191.971 56.8107 191.991C53.7613 192.076 50.7077 191.991 47.6704 191.731C46.972 191.67 46.2776 191.601 45.5833 191.524C45.0554 191.463 43.5368 191.224 44.893 191.447C43.4759 191.212 42.0547 190.992 40.6456 190.712C35.7933 189.742 31.0262 188.337 26.4093 186.55C25.918 186.359 25.4307 186.164 24.9435 185.969C24.7282 185.884 24.4196 185.807 24.2288 185.677C24.2044 185.661 25.6662 186.31 24.8947 185.953C24.0258 185.551 23.1446 185.178 22.2797 184.771C20.692 184.024 19.1287 183.228 17.5857 182.396C13.6876 180.293 9.64732 181.698 7.15007 185.133C6.80898 185.604 6.45978 186.075 6.11057 186.542C5.91972 186.794 5.71669 187.041 5.53802 187.297C6.97141 185.243 6.27705 186.355 5.91161 186.81C4.97768 187.979 4.03561 189.141 3.06108 190.274C0.81559 192.88 -1.5639 195.37 -4.07333 197.725C-5.43768 199.008 -6.83856 200.25 -8.28007 201.448C-8.69019 201.789 -9.10435 202.126 -9.51853 202.459L-9.94083 202.796C-10.5905 203.308 -10.5093 203.247 -9.68908 202.61C-10.6108 202.959 -11.5854 204.031 -12.3894 204.595C-16.1413 207.251 -20.1004 209.61 -24.2299 211.628C-25.3791 212.188 -26.5445 212.72 -27.7139 213.232C-26.0816 212.517 -28.0916 213.378 -28.3068 213.463C-28.924 213.707 -29.5452 213.943 -30.1665 214.174C-32.3064 214.962 -34.4788 215.656 -36.6756 216.265C-40.1474 217.228 -43.676 217.995 -47.2249 218.592C-48.1467 218.746 -49.0725 218.86 -49.9902 219.022C-51.119 219.221 -48.0086 218.787 -49.7587 218.99C-50.2785 219.051 -50.7941 219.116 -51.3139 219.173C-53.4173 219.404 -55.5288 219.575 -57.6443 219.676C-61.6927 219.867 -65.7654 219.802 -69.7935 219.355C-71.6208 219.152 -69.9153 219.534 -69.8179 219.367C-69.8829 219.477 -71.6451 219.071 -71.836 219.039C-72.8268 218.86 -73.8094 218.649 -74.788 218.409C-75.9006 218.137 -77.0051 217.82 -78.0933 217.459C-78.5522 217.305 -79.0069 217.146 -79.4577 216.976C-80.8342 216.456 -79.8272 216.489 -79.4008 217.029C-79.88 216.424 -81.6098 215.969 -82.3204 215.563C-83.1812 215.067 -83.9649 214.45 -84.8135 213.947C-85.6622 213.443 -83.3639 215.201 -84.5171 214.166C-84.9638 213.764 -85.4226 213.378 -85.8571 212.96C-86.6124 212.221 -87.3067 211.429 -87.9564 210.601C-90.4293 207.446 -96.1831 207.815 -98.7413 210.601C-101.811 213.947 -101.381 218.023 -98.7413 221.386L-98.7494 221.39Z" fill="#FDDA00"/>
</svg>
